HIERARCHY
ROOT Hips
{
	OFFSET 0.000000 0.000000 0.000000
	CHANNELS 6 Xposition Yposition Zposition Zrotation Yrotation Xrotation 
	JOINT LHipJoint
	{
		OFFSET 0.000000 0.000000 0.000000
		CHANNELS 3 Zrotation Yrotation Xrotation
		JOINT LeftUpLeg
		{
			OFFSET 1.363060 -1.794630 0.839290
			CHANNELS 3 Zrotation Yrotation Xrotation
			JOINT LeftLeg
			{
				OFFSET 2.448110 -6.726130 0.000000
				CHANNELS 3 Zrotation Yrotation Xrotation
				JOINT LeftFoot
				{
					OFFSET 2.562200 -7.039590 0.000000
					CHANNELS 3 Zrotation Yrotation Xrotation
					JOINT LeftToeBase
					{
						OFFSET 0.157640 -0.433110 2.322550
						CHANNELS 3 Zrotation Yrotation Xrotation
						End Site
						{
							OFFSET 0.000000 0.000000 0.000000
						}
					}
				}
			}
		}
	}
	JOINT RHipJoint
	{
		OFFSET 0.000000 0.000000 0.000000
		CHANNELS 3 Zrotation Yrotation Xrotation
		JOINT RightUpLeg
		{
			OFFSET -1.305520 -1.794630 0.839290
			CHANNELS 3 Zrotation Yrotation Xrotation
			JOINT RightLeg
			{
				OFFSET -2.542530 -6.985550 0.000000
				CHANNELS 3 Zrotation Yrotation Xrotation
				JOINT RightFoot
				{
					OFFSET -2.568260 -7.056230 0.000000
					CHANNELS 3 Zrotation Yrotation Xrotation
					JOINT RightToeBase
					{
						OFFSET -0.164730 -0.452590 2.363150
						CHANNELS 3 Zrotation Yrotation Xrotation
						End Site
						{
							OFFSET 0.000000 0.000000 0.000000
						}
					}
				}
			}
		}
	}
	JOINT LowerBack
	{
		OFFSET 0.000000 0.000000 0.000000
		CHANNELS 3 Zrotation Yrotation Xrotation
		JOINT Spine
		{
			OFFSET 0.028270 2.035590 -0.193380
			CHANNELS 3 Zrotation Yrotation Xrotation
			JOINT Spine1
			{
				OFFSET 0.056720 2.048850 -0.042750
				CHANNELS 3 Zrotation Yrotation Xrotation
				JOINT Neck
				{
					OFFSET 0.000000 0.000000 0.000000
					CHANNELS 3 Zrotation Yrotation Xrotation
					JOINT Neck1
					{
						OFFSET -0.054170 1.746240 0.172020
						CHANNELS 3 Zrotation Yrotation Xrotation
						JOINT Head
						{
							OFFSET 0.104070 1.761360 -0.123970
							CHANNELS 3 Zrotation Yrotation Xrotation
							End Site
							{
								OFFSET 0.000000 0.000000 0.000000
							}
						}
					}
				}
				JOINT LeftShoulder
				{
					OFFSET 0.000000 0.000000 0.000000
					CHANNELS 3 Zrotation Yrotation Xrotation
					JOINT LeftArm
					{
						OFFSET 3.362410 1.200890 -0.311210
						CHANNELS 3 Zrotation Yrotation Xrotation
						JOINT LeftForeArm
						{
							OFFSET 4.983000 -0.000000 -0.000000
							CHANNELS 3 Zrotation Yrotation Xrotation
							JOINT LeftHand
							{
								OFFSET 3.483560 -0.000000 -0.000000
								CHANNELS 3 Zrotation Yrotation Xrotation
								JOINT LeftFingerBase
								{
									OFFSET 0.000000 0.000000 0.000000
									CHANNELS 3 Zrotation Yrotation Xrotation
									JOINT LeftHandIndex1
									{
										OFFSET 0.715260 -0.000000 -0.000000
										CHANNELS 3 Zrotation Yrotation Xrotation
										End Site
										{
											OFFSET 0.000000 0.000000 0.000000
										}
									}
								}
								JOINT LThumb
								{
									OFFSET 0.000000 0.000000 0.000000
									CHANNELS 3 Zrotation Yrotation Xrotation
									End Site
									{
										OFFSET 0.000000 0.000000 0.000000
									}
								}
							}
						}
					}
				}
				JOINT RightShoulder
				{
					OFFSET 0.000000 0.000000 0.000000
					CHANNELS 3 Zrotation Yrotation Xrotation
					JOINT RightArm
					{
						OFFSET -3.136600 1.374050 -0.404650
						CHANNELS 3 Zrotation Yrotation Xrotation
						JOINT RightForeArm
						{
							OFFSET -5.241900 -0.000000 -0.000000
							CHANNELS 3 Zrotation Yrotation Xrotation
							JOINT RightHand
							{
								OFFSET -3.444170 -0.000000 -0.000000
								CHANNELS 3 Zrotation Yrotation Xrotation
								JOINT RightFingerBase
								{
									OFFSET 0.000000 0.000000 0.000000
									CHANNELS 3 Zrotation Yrotation Xrotation
									JOINT RightHandIndex1
									{
										OFFSET -0.622530 -0.000000 -0.000000
										CHANNELS 3 Zrotation Yrotation Xrotation
										End Site
										{
											OFFSET 0.000000 0.000000 0.000000
										}
									}
								}
								JOINT RThumb
								{
									OFFSET 0.000000 0.000000 0.000000
									CHANNELS 3 Zrotation Yrotation Xrotation
									End Site
									{
										OFFSET 0.000000 0.000000 0.000000
									}
								}
							}
						}
					}
				}
			}
		}
	}
}
MOTION
Frames: 9
Frame Time: 0.008333
10.359162 18.071552 -31.094196 179.894110 -5.552427 176.762858 -0.020117 3.623889 3.435724 -28.758388 -8.930650 3.678873 -3.673919 4.794922 15.746518 -5.311512 17.457258 -8.900923 0.516100 4.604400 12.783500 -5.149058 -2.978375 -0.714878 17.821485 0.169192 -19.787836 -12.548209 -19.221506 71.947265 1.651121 -7.540152 4.424547 -0.295900 3.498000 -9.668400 4.834041 0.630546 -0.660811 0.884149 0.602376 0.742440 -5.217414 -0.190334 -8.286888 -11.276142 -4.398055 -8.677860 13.507171 -7.176318 15.174921 2.696800 -3.254400 4.989700 -1.615470 -10.927861 1.640567 -86.643112 7.452174 12.564062 24.676796 -24.750582 -6.385749 1.781204 0.699396 20.045301 7.159322 -30.320788 -3.029400 -7.125000 0.000000 0.000000 -14.611600 -0.954300 15.357900 0.650740 10.584667 2.824899 86.274450 -14.129648 24.876348 -24.235829 27.536080 -7.423113 1.000386 0.441668 10.920371 5.865393 -55.218209 -4.124700 7.125000 0.000000 0.000000 83.257600 -70.304700 -62.039000 
10.346218 18.055078 -31.155738 179.602359 -5.818659 176.737093 0.024805 3.634795 3.429891 -29.193405 -8.842139 4.058608 -3.617004 4.756444 15.619051 -5.515769 17.938046 -7.128734 0.351800 3.811000 10.545500 -5.184928 -2.919651 -0.756933 17.503992 0.793041 -20.222440 -12.334336 -19.275976 71.334738 1.818227 -8.110315 2.580256 -0.161500 2.589300 -7.137400 4.604172 0.380226 -0.513339 0.811518 0.273823 0.598264 -5.065368 -0.352913 -8.412788 -11.312250 -4.449716 -9.053975 13.303857 -7.197762 15.735306 2.643900 -3.253200 5.204200 -1.614228 -10.892210 1.648944 -86.622259 7.370301 12.674582 24.589774 -24.658417 -6.359658 1.780330 0.722057 19.898362 7.423985 -30.689568 -3.207800 -7.125000 0.000000 0.000000 -14.477100 -1.363000 15.310000 0.667665 10.609704 2.849698 86.217999 -14.290457 24.596366 -24.270913 27.572917 -7.431455 1.002397 0.438454 10.983467 5.844118 -55.029953 -4.096100 7.125000 0.000000 0.000000 82.726200 -70.280900 -61.474000 
10.330568 18.035191 -31.223281 179.351601 -6.111208 176.613792 0.062578 3.659771 3.489051 -29.622454 -8.931998 4.645475 -3.626177 4.675604 15.518797 -5.390848 17.655604 -7.441746 0.431900 4.217500 11.689500 -5.197269 -2.889096 -0.768322 17.208297 1.341884 -20.492266 -12.063245 -19.288185 70.558679 1.984697 -8.718110 0.847486 -0.086800 1.900800 -5.231500 4.285905 0.101672 -0.654739 0.904468 -0.107632 0.841519 -4.850124 -0.514355 -8.301266 -10.808050 -3.847481 -8.364667 13.048473 -6.458961 15.039806 2.523600 -2.924500 4.834700 -1.618728 -10.937585 1.626385 -86.708513 7.167536 12.593634 24.594142 -24.664073 -6.360003 1.782722 0.718086 19.938755 7.350731 -30.665896 -3.164700 -7.125000 0.000000 0.000000 -14.518100 -1.328500 15.347600 0.658303 10.586222 2.821243 85.905166 -14.164780 24.581007 -24.113925 27.387121 -7.339206 1.019347 0.429564 11.091411 5.525359 -54.560052 -3.795700 7.125000 0.000000 0.000000 81.276200 -70.307900 -60.058100 
10.320096 18.019306 -31.280469 179.193419 -6.425507 176.556938 0.090235 3.670022 3.524450 -29.895688 -9.056826 5.040360 -3.621662 4.650034 15.525269 -5.312048 17.475368 -7.624287 0.441600 4.263900 11.820300 -5.197775 -2.827093 -0.797367 17.046470 2.064232 -20.807382 -11.718516 -19.293336 69.591598 2.169744 -9.414751 -0.728582 -0.027400 1.069000 -2.938600 4.001333 -0.225162 -0.592258 1.026639 -0.531017 0.949453 -4.631186 -0.714067 -8.346153 -10.161420 -3.707097 -8.694040 12.323643 -6.170017 15.236726 2.222100 -2.776400 4.893000 -1.632777 -10.901866 1.614255 -86.767888 7.055597 12.512211 24.756195 -24.847075 -6.431318 1.783834 0.696259 20.007326 7.002174 -30.498140 -2.958300 -7.125000 0.000000 0.000000 -14.708100 -1.103300 15.504700 0.642969 10.633908 2.829351 85.580716 -13.997684 24.753194 -23.919474 27.171779 -7.238984 1.028320 0.430453 10.966148 5.683661 -54.261579 -3.904000 7.125000 0.000000 0.000000 80.545500 -70.199100 -59.198400 
10.312800 18.012834 -31.335892 179.264703 -6.661012 176.522459 0.115323 3.667855 3.540184 -29.868277 -9.086055 5.214554 -3.600782 4.673369 15.635188 -5.292834 17.417097 -7.628063 0.369000 3.901900 10.801000 -5.178365 -2.743402 -0.843070 17.114143 2.975612 -21.101149 -11.292472 -19.284846 68.451241 2.312752 -9.976808 -2.229900 -0.000000 0.016900 -0.046300 3.899121 -0.493962 -0.327595 1.275713 -0.856450 0.819564 -4.516885 -0.886367 -8.534214 -9.759511 -3.587356 -8.874677 11.855017 -5.955891 15.425815 2.032300 -2.668800 4.938500 -1.665821 -10.864676 1.612909 -86.783470 6.842883 12.300455 24.640591 -24.737847 -6.388853 1.792513 0.707344 20.326657 7.248565 -30.827277 -3.122000 -7.125000 0.000000 0.000000 -14.583900 -1.474500 15.458900 0.629376 10.661055 2.853922 85.379610 -14.088911 24.804563 -23.865711 27.115617 -7.212007 1.028903 0.433684 10.717533 5.797468 -54.163775 -3.990700 7.125000 0.000000 0.000000 80.335800 -70.141200 -58.919200 
10.306916 18.008245 -31.391904 179.407778 -6.801824 176.394388 0.141780 3.672141 3.578398 -29.771191 -9.121999 5.365733 -3.570734 4.727598 15.835609 -5.282028 17.380626 -7.743256 0.326200 3.671000 10.152900 -5.146202 -2.670888 -0.860917 17.263120 3.889335 -21.327630 -10.834204 -19.245210 67.222408 2.444989 -10.502852 -3.439841 -0.008100 -0.580000 1.593800 3.828932 -0.707183 -0.279061 1.592053 -1.112291 1.065854 -4.421615 -1.011186 -8.536248 -9.444763 -3.415018 -8.946354 11.504998 -5.681167 15.329099 1.889700 -2.539100 4.892800 -1.673074 -10.857411 1.601953 -86.731356 6.853741 13.048229 24.834780 -24.933279 -6.487447 1.751382 0.738618 19.686871 7.784338 -30.841485 -3.430800 -7.125000 0.000000 0.000000 -14.268700 -1.559100 15.123500 0.590011 10.664199 2.845768 85.197354 -14.013356 24.688075 -23.883503 27.139678 -7.223122 1.033543 0.427288 10.548165 5.092124 -54.261468 -3.409000 7.125000 0.000000 0.000000 80.217600 -70.399700 -59.124600 
10.300091 17.995536 -31.443208 179.366584 -7.045395 176.355783 0.160748 3.652835 3.576348 -29.888683 -9.255100 5.530643 -3.535355 4.809014 16.110231 -5.157477 17.073964 -8.064851 0.388400 4.001700 11.081500 -5.129967 -2.600433 -0.903711 17.202803 4.653705 -21.568499 -10.368567 -19.180216 65.918565 2.591474 -11.045678 -4.238289 -0.006200 -0.509500 1.399900 3.674458 -0.935472 0.087205 1.742135 -1.389506 0.874058 -4.285225 -1.147133 -8.781672 -9.172043 -3.197501 -8.700500 11.188375 -5.403141 15.208350 1.767100 -2.419000 4.787700 -1.677159 -10.828286 1.605448 -86.764980 6.988556 13.470355 25.068551 -25.180994 -6.593845 1.724737 0.734904 19.360266 7.759242 -30.558016 -3.396800 -7.125000 0.000000 0.000000 -14.259900 -1.261100 15.039900 0.582734 10.651032 2.860043 85.071612 -14.166149 24.536414 -23.869614 27.127330 -7.216433 1.039388 0.417117 10.480760 4.191699 -54.330093 -2.664600 7.125000 0.000000 0.000000 79.924800 -70.718700 -59.231400 
10.291266 17.979415 -31.495101 179.281148 -7.329650 176.394298 0.172997 3.630461 3.587748 -30.034878 -9.339009 5.641389 -3.497722 4.887880 16.377400 -4.996735 16.672723 -8.344226 0.448900 4.298800 11.918700 -5.112424 -2.530796 -0.931619 17.060919 5.428901 -21.812201 -9.875920 -19.088739 64.514538 2.758226 -11.633625 -4.875459 -0.002900 -0.350300 0.962600 3.505148 -1.166541 0.040735 1.862154 -1.695427 0.963018 -4.142742 -1.294605 -8.742316 -8.574260 -3.079706 -8.801027 10.488661 -5.174735 15.250912 1.479500 -2.314900 4.785800 -1.692830 -10.808733 1.592324 -86.714500 6.722694 13.765157 25.016362 -25.108716 -6.564464 1.713218 0.748046 19.232680 8.033914 -30.491569 -3.544400 -7.125000 0.000000 0.000000 -14.097500 -1.238500 14.852100 0.567152 10.689067 2.865925 84.958293 -14.139744 24.211903 -23.892222 27.155472 -7.225238 1.040578 0.415908 10.393464 4.079743 -54.308584 -2.570100 7.125000 0.000000 0.000000 79.803900 -70.752600 -59.154500 
10.283735 17.970002 -31.546288 179.383829 -7.582663 176.440039 0.187509 3.617367 3.597614 -29.946849 -9.435790 5.729089 -3.468320 4.945349 16.587657 -4.826937 16.220853 -8.522810 0.547900 4.741800 13.173700 -5.076087 -2.455447 -0.970079 17.108930 6.312124 -22.023804 -9.333198 -18.978467 63.003688 2.929593 -12.240600 -5.544974 -0.002200 -0.301400 0.828000 3.419917 -1.405859 0.190490 2.142859 -1.992664 0.860232 -4.035123 -1.449881 -8.848955 -8.173039 -2.845333 -8.714394 10.079958 -4.843241 15.204178 1.311400 -2.160100 4.729600 -1.723731 -10.789075 1.586247 -86.739308 6.543733 13.805827 24.933486 -25.020699 -6.529652 1.717397 0.752867 19.330545 8.095992 -30.615420 -3.591000 -7.125000 0.000000 0.000000 -14.069100 -1.375300 14.853700 0.549612 10.701974 2.881012 84.841726 -14.285114 23.891062 -23.916369 27.181339 -7.226841 1.040966 0.414996 10.460171 4.443223 -54.071343 -2.860200 7.125000 0.000000 0.000000 79.327100 -70.579700 -58.473700 
